<?xml version="1.0" standalone="no"?>
<!DOCTYPE svg PUBLIC "-//W3C//DTD SVG 20010904//EN"
 "http://www.w3.org/TR/2001/REC-SVG-20010904/DTD/svg10.dtd">
<svg version="1.0" xmlns="http://www.w3.org/2000/svg"
 width="664.000000pt" height="538.000000pt" viewBox="0 0 664.000000 538.000000"
 preserveAspectRatio="xMidYMid meet">

<g transform="translate(0.000000,538.000000) scale(0.100000,-0.100000)"
fill="#000000" stroke="none">
<path d="M2536 5242 c-3 -2 -29 -6 -58 -7 -108 -5 -171 -32 -188 -78 -7 -22
-7 -33 1 -38 8 -5 7 -8 -2 -12 -47 -20 78 6 131 28 48 19 84 26 135 26 103 1
166 -7 199 -24 16 -9 33 -14 37 -11 5 3 26 -4 47 -15 22 -11 42 -17 46 -14 3
4 6 1 6 -6 0 -8 6 -11 16 -7 8 3 12 2 9 -4 -3 -6 -2 -10 4 -10 5 0 18 -13 27
-29 10 -17 22 -27 27 -24 15 9 -3 -56 -29 -104 l-23 -45 27 -27 c15 -15 30
-26 34 -24 4 2 5 -2 2 -10 -3 -8 4 -42 15 -75 12 -34 21 -70 21 -81 0 -32 -48
-79 -149 -146 -115 -76 -130 -89 -159 -136 -26 -43 -27 -60 -6 -105 26 -55
120 -104 201 -104 23 0 44 -4 47 -8 5 -9 105 -7 191 2 255 29 359 25 456 -16
82 -34 100 -109 42 -178 -32 -39 -63 -55 -135 -70 -32 -6 -60 -16 -63 -21 -4
-5 -16 -7 -28 -3 -13 3 -36 -2 -52 -10 -16 -8 -32 -13 -37 -10 -4 3 -8 0 -8
-5 0 -6 -6 -11 -14 -11 -7 0 -16 -10 -20 -22 -9 -34 -8 -38 10 -38 8 0 13 -4
10 -8 -7 -12 24 -53 35 -47 5 4 9 -1 9 -9 0 -18 34 -39 45 -28 4 4 2 -3 -4
-16 -18 -35 6 -202 29 -202 30 0 58 53 65 122 l7 66 -37 38 c-23 25 -38 35
-42 27 -2 -7 -14 -13 -26 -13 -20 0 -21 0 -1 16 10 8 13 13 7 9 -21 -10 -16
42 5 54 10 6 12 11 4 11 -7 0 -11 4 -8 8 3 5 19 7 37 4 24 -4 30 -2 24 8 -6 9
-4 11 6 5 18 -12 71 -7 111 9 18 7 39 11 47 8 8 -2 11 0 7 6 -3 6 7 13 24 17
36 8 104 67 126 109 56 111 -2 232 -132 275 -36 13 -68 20 -71 17 -3 -3 -14
-1 -24 5 -10 5 -56 10 -101 11 -46 1 -91 5 -100 10 -10 5 -19 4 -23 -2 -4 -6
-25 -9 -48 -7 -23 2 -50 0 -59 -5 -21 -10 -261 -14 -313 -4 -50 9 -90 38 -82
59 7 18 45 46 164 122 174 110 216 203 132 287 -16 16 -29 34 -29 39 0 5 -4 9
-8 9 -5 0 -15 12 -22 26 -12 21 -12 27 -1 34 27 16 36 160 13 205 -27 53 -55
85 -99 111 -45 26 -143 64 -178 68 -11 1 -27 6 -36 10 -9 4 -20 6 -25 5 -5 -1
-11 0 -14 1 -10 5 -180 7 -184 2z"/>
<path d="M2420 5000 c0 -16 6 -32 13 -37 6 -4 46 -6 88 -5 74 3 76 2 112 -32
46 -43 74 -53 94 -33 18 18 9 72 -14 81 -8 4 -13 12 -10 19 3 8 0 14 -6 15 -7
0 -23 4 -37 8 -14 3 -73 8 -132 10 l-108 4 0 -30z"/>
<path d="M2539 4862 c-39 -10 -39 -10 -24 -53 20 -55 20 -53 -16 -94 -44 -50
-66 -59 -245 -103 -88 -22 -186 -52 -219 -67 -155 -73 -267 -171 -318 -279
-29 -61 -52 -185 -37 -200 4 -4 6 -14 3 -21 -5 -13 36 -105 61 -137 7 -10 18
-18 25 -18 6 0 11 -6 11 -13 0 -16 41 -57 57 -57 5 0 18 -9 29 -21 31 -34 222
-120 278 -125 17 -2 60 -8 96 -14 76 -14 101 -16 198 -24 39 -3 77 -8 84 -12
7 -5 8 -3 3 6 -5 9 -2 11 11 7 17 -5 174 -22 300 -32 126 -10 212 -29 260 -56
29 -15 55 -25 58 -21 4 3 4 -1 1 -10 -4 -11 2 -26 17 -40 13 -14 22 -33 20
-45 -2 -11 8 -33 21 -49 23 -26 26 -27 41 -12 9 9 25 19 35 23 16 5 18 11 10
46 -11 45 -29 84 -56 114 -37 41 -116 104 -124 99 -5 -3 -9 -1 -9 4 0 16 -32
23 -47 10 -8 -6 -13 -7 -12 -2 4 24 -2 36 -17 30 -8 -3 -13 -2 -10 3 3 4 -19
11 -48 15 -30 3 -62 9 -72 13 -12 4 -15 3 -10 -5 5 -9 0 -9 -21 0 -18 7 -115
12 -273 13 -201 2 -252 5 -284 19 -21 9 -42 13 -47 10 -5 -3 -9 0 -9 7 0 7 -9
9 -22 6 -12 -3 -30 -1 -41 5 -11 5 -36 10 -56 10 -20 0 -48 6 -63 14 -15 8
-38 14 -53 14 -14 0 -25 4 -25 10 0 5 -21 21 -47 34 -27 13 -57 37 -68 52 -11
15 -25 32 -31 39 -16 16 -45 74 -50 99 -12 69 -13 86 -5 86 5 0 7 8 4 19 -10
38 27 114 79 163 27 27 56 48 64 48 8 0 24 10 36 22 12 12 31 22 42 24 12 1
20 7 18 13 -1 7 2 10 8 6 5 -3 13 1 16 9 3 9 10 13 15 10 5 -3 9 -1 9 3 0 5
20 9 45 8 25 0 47 5 49 11 4 11 51 24 88 25 10 0 20 4 23 10 4 5 19 9 34 9 15
0 36 7 47 15 10 8 27 15 37 15 9 0 17 5 17 10 0 6 3 9 8 8 11 -4 72 26 72 34
0 5 6 8 14 8 13 0 46 29 99 87 30 35 23 144 -11 159 -20 9 -53 12 -73 6z"/>
<path d="M5026 4048 c-46 -65 19 -156 86 -122 52 27 49 92 -5 125 -42 25 -62
24 -81 -3z"/>
<path d="M5258 4064 c-4 -3 -14 -7 -25 -8 -24 -4 -30 -61 -8 -86 8 -9 33 -25
55 -35 l39 -18 36 27 c41 31 45 61 14 100 -16 21 -29 26 -63 26 -23 0 -45 -3
-48 -6z"/>
<path d="M5186 4037 c3 -10 9 -15 12 -12 3 3 0 11 -7 18 -10 9 -11 8 -5 -6z"/>
<path d="M4823 3990 c-52 -21 -73 -112 -38 -166 22 -33 89 -66 120 -58 14 3
38 22 55 40 24 28 30 44 30 80 0 39 -5 51 -34 80 -27 27 -42 34 -72 33 -22 0
-49 -4 -61 -9z m82 -82 c12 -30 12 -35 -6 -53 -20 -20 -20 -20 -44 8 -21 23
-23 31 -13 52 16 36 46 32 63 -7z"/>
<path d="M5426 3958 c-8 -13 -16 -34 -18 -48 -6 -49 73 -34 93 17 19 50 -46
76 -75 31z"/>
<path d="M5159 3890 c-64 -8 -140 -66 -173 -132 -30 -60 -35 -138 -11 -158 8
-7 12 -17 9 -22 -4 -5 3 -23 15 -39 11 -15 21 -33 21 -38 0 -25 129 -154 187
-188 32 -19 54 -24 90 -22 63 4 104 31 143 96 27 46 32 66 37 143 10 155 -33
276 -116 324 -44 25 -143 43 -202 36z m131 -115 c41 -21 49 -41 61 -157 19
-183 18 -200 -12 -217 -40 -22 -70 -8 -148 71 -118 121 -144 176 -116 244 26
63 145 95 215 59z"/>
<path d="M476 3565 c-22 -23 -28 -52 -16 -75 8 -15 17 -19 28 -15 9 4 24 9 33
12 27 8 30 61 5 79 -26 18 -31 18 -50 -1z"/>
<path d="M563 3441 c-23 -11 -48 -29 -55 -40 -7 -12 -22 -21 -33 -21 -20 1
-20 1 -1 15 47 36 -60 53 -123 21 -80 -42 -20 -117 65 -81 21 8 40 13 43 9 3
-3 4 -32 3 -64 -3 -52 -1 -60 18 -70 57 -30 97 22 66 86 -25 53 -22 56 38 49
33 -3 57 -1 61 5 3 6 10 8 15 5 14 -8 32 33 25 55 -6 18 -52 50 -72 50 -4 0
-27 -9 -50 -19z"/>
<path d="M5721 3254 c-32 -41 -25 -79 22 -131 46 -51 94 -7 83 74 -11 81 -64
109 -105 57z"/>
<path d="M5882 3230 c-34 -54 1 -134 56 -128 30 3 53 -15 77 -61 17 -34 58
-50 84 -34 9 5 23 22 31 36 19 33 7 56 -38 77 -17 8 -34 23 -37 32 -3 9 -15
20 -26 23 -11 4 -35 22 -54 41 -39 38 -74 44 -93 14z"/>
<path d="M5525 3168 c-32 -38 -51 -81 -37 -86 6 -2 8 -11 5 -21 -3 -13 7 -27
31 -46 33 -25 39 -26 66 -15 93 39 108 151 25 186 -49 20 -60 18 -90 -18z m35
-61 c0 -6 -9 -2 -20 8 -11 10 -17 22 -13 28 6 10 33 -19 33 -36z"/>
<path d="M2856 3118 c-33 -4 -112 -10 -175 -12 -64 -2 -143 -7 -176 -11 -33
-4 -70 -7 -82 -6 -13 0 -23 -4 -23 -9 0 -5 -17 -9 -37 -8 -58 2 -196 -13 -216
-23 -9 -6 -38 -10 -63 -11 -28 0 -48 -6 -51 -14 -2 -7 -11 -10 -19 -7 -8 3
-22 2 -31 -2 -10 -5 -28 -7 -40 -6 -13 1 -23 -3 -23 -9 0 -6 -6 -10 -12 -9 -7
2 -33 -3 -58 -10 -25 -8 -49 -14 -55 -15 -5 -1 -23 -6 -40 -12 -16 -7 -64 -22
-105 -34 -84 -26 -142 -49 -212 -86 -27 -14 -48 -22 -48 -19 0 4 -14 -5 -31
-19 -17 -14 -36 -26 -43 -26 -7 0 -21 -9 -32 -21 -10 -12 -31 -27 -46 -35 -16
-8 -28 -21 -28 -29 0 -8 -11 -22 -25 -31 -14 -9 -28 -27 -31 -39 -3 -13 -14
-31 -25 -41 -10 -9 -19 -21 -19 -25 0 -4 -5 -20 -12 -36 -6 -15 -10 -32 -9
-37 1 -4 -2 -13 -7 -20 -5 -6 -8 -26 -6 -43 1 -18 -2 -33 -6 -33 -19 0 -6
-293 16 -391 8 -33 14 -65 18 -93 2 -14 7 -30 11 -36 3 -5 9 -23 11 -38 15
-82 146 -392 166 -392 5 0 7 -4 4 -8 -4 -8 10 -32 107 -176 21 -31 42 -54 47
-51 4 3 14 -8 21 -23 7 -15 29 -41 51 -57 21 -16 38 -34 38 -41 0 -7 12 -19
27 -26 15 -7 32 -22 38 -33 6 -11 16 -21 24 -23 7 -1 24 -16 38 -32 14 -17 33
-30 44 -30 10 0 26 -11 35 -25 9 -14 35 -34 58 -46 76 -38 123 -64 138 -77 8
-6 41 -21 72 -32 31 -10 66 -26 78 -34 12 -9 35 -16 50 -16 25 0 28 -4 30 -32
4 -79 6 -111 12 -142 7 -35 69 -116 90 -116 7 0 32 -13 57 -28 24 -16 50 -27
58 -24 7 2 26 -5 42 -17 16 -12 34 -19 39 -16 5 3 11 1 15 -4 3 -6 12 -8 20
-5 7 3 25 -2 39 -11 14 -10 32 -15 41 -12 8 4 40 -1 71 -9 32 -8 63 -13 69
-10 6 2 31 0 56 -5 39 -8 215 -20 292 -20 15 0 38 0 52 1 45 0 50 0 90 4 81 9
152 16 230 22 44 3 95 10 113 16 18 5 36 7 39 4 3 -3 20 1 37 8 17 7 34 13 39
14 25 2 204 67 212 77 6 6 27 22 47 36 50 32 75 87 85 189 7 78 10 84 33 91
48 13 254 117 325 164 52 34 149 112 182 147 7 7 37 37 65 66 29 29 64 66 78
83 14 16 35 40 48 53 12 13 22 28 22 35 0 6 9 16 20 23 11 7 20 18 20 24 0 6
8 22 18 35 10 13 37 69 61 124 24 55 49 111 55 125 7 14 21 52 30 85 10 33 21
69 26 80 14 37 57 286 66 395 9 91 5 273 -7 307 -6 19 -8 37 -5 40 3 3 -4 17
-14 31 -11 13 -20 33 -20 43 0 9 -6 24 -13 31 -8 7 -26 32 -41 56 -14 23 -30
42 -35 42 -4 0 -24 15 -43 33 -65 60 -76 66 -238 139 -25 12 -62 29 -82 40
-21 11 -38 16 -38 12 0 -3 -7 -1 -15 6 -8 7 -15 9 -15 4 0 -4 -5 -3 -12 4 -7
7 -22 12 -34 12 -13 0 -29 7 -38 15 -8 8 -36 17 -61 20 -26 2 -52 8 -58 13 -7
5 -26 9 -43 9 -16 0 -45 7 -64 16 -18 10 -42 15 -52 11 -11 -3 -26 0 -34 7 -8
6 -40 12 -72 13 -31 1 -63 5 -70 10 -8 4 -39 10 -70 12 -31 2 -77 6 -102 8
-25 2 -79 7 -120 10 -41 4 -97 9 -125 12 -27 4 -73 7 -100 8 -28 1 -55 4 -60
7 -10 5 -329 4 -350 -1 -5 -1 -14 -1 -20 0 -22 6 -123 5 -179 -2z m190 -99
c32 -8 48 -8 57 0 13 10 70 8 110 -5 9 -3 17 0 17 6 0 6 5 8 10 5 6 -3 72 -8
148 -11 75 -2 157 -6 182 -9 78 -9 144 -14 190 -14 25 0 59 -5 77 -10 23 -7
33 -6 36 2 3 9 7 9 18 0 8 -6 34 -13 59 -16 25 -3 52 -8 60 -11 8 -3 35 -7 60
-10 25 -3 63 -10 84 -15 22 -5 44 -7 48 -5 5 3 16 0 25 -8 9 -7 26 -14 37 -15
66 -7 78 -10 84 -20 11 -18 55 -32 83 -26 16 3 32 -1 42 -11 8 -9 19 -16 24
-16 14 0 157 -61 167 -71 6 -5 22 -9 37 -9 15 0 29 -7 33 -15 3 -8 22 -23 43
-33 171 -79 228 -312 96 -393 -20 -13 -45 -31 -56 -42 -10 -10 -30 -22 -44
-28 -23 -9 -30 -6 -61 25 -78 81 -248 145 -359 137 -20 -2 -33 2 -33 9 0 6 -4
9 -9 5 -18 -10 -56 16 -91 63 -45 60 -127 143 -165 167 -16 11 -34 25 -38 32
-5 8 -12 11 -18 8 -5 -4 -9 -1 -9 6 0 7 -3 9 -6 6 -4 -4 -29 5 -55 19 -29 16
-55 24 -65 20 -10 -4 -21 -1 -25 6 -5 7 -29 13 -56 14 -26 1 -55 4 -63 8 -25
10 -168 0 -260 -20 -57 -12 -189 -68 -241 -103 -54 -36 -57 -37 -98 -25 -23 7
-56 23 -74 37 -37 28 -139 82 -149 79 -5 -1 -8 3 -8 8 0 6 -6 10 -12 8 -7 -1
-34 6 -61 16 -26 11 -50 16 -54 13 -3 -4 -11 -2 -18 3 -6 5 -54 11 -106 14
-215 9 -444 -74 -572 -207 -25 -27 -29 -28 -50 -14 -32 20 -220 15 -257 -8 -8
-5 -23 -10 -35 -11 -33 -4 -75 -23 -75 -34 0 -5 -14 -10 -31 -10 -22 0 -40 -9
-59 -30 -15 -16 -32 -30 -37 -30 -20 0 -112 -122 -119 -156 -3 -19 -9 -34 -11
-34 -3 0 -49 45 -103 99 -73 75 -97 106 -95 123 1 13 3 33 4 46 1 14 7 22 20
22 13 0 23 14 35 54 20 61 28 71 71 82 17 4 55 20 85 36 30 15 60 28 67 28 7
0 21 4 31 9 40 20 94 41 106 41 8 0 19 7 27 16 7 9 21 13 32 10 11 -3 28 -1
37 4 10 5 32 12 51 16 31 5 60 11 67 13 1 1 5 2 10 3 4 0 23 8 42 16 62 25
175 52 330 77 19 3 42 8 50 10 8 2 40 7 70 10 30 3 75 8 100 11 25 3 79 8 120
10 41 2 92 6 113 9 23 3 37 1 37 -5 0 -7 6 -8 19 0 11 5 30 10 43 9 57 -1 189
8 195 14 9 10 38 9 89 -4z m-467 -320 c12 -8 24 -9 35 -2 20 11 90 0 182 -28
67 -20 100 -36 212 -107 62 -39 73 -50 69 -69 -7 -38 29 -28 121 33 81 54 188
104 221 104 9 0 30 7 46 16 46 25 270 25 350 0 150 -47 263 -131 368 -276 110
-150 112 -152 147 -95 22 35 23 35 73 29 106 -12 171 -37 232 -88 30 -24 30
-25 10 -40 -11 -8 -39 -26 -63 -38 -36 -19 -44 -21 -51 -9 -5 8 -27 15 -49 17
-22 1 -44 4 -49 7 -6 4 -20 5 -32 2 -11 -2 -21 0 -21 5 0 5 -11 7 -25 4 -22
-4 -26 0 -31 26 -4 17 -11 33 -17 37 -6 4 -8 0 -5 -8 17 -44 19 -59 8 -59 -7
0 -10 -7 -6 -15 7 -20 -29 -20 -90 1 -60 20 -62 22 -146 134 -39 52 -85 110
-102 129 -37 40 -163 103 -188 95 -10 -3 -18 -1 -18 5 0 6 -10 10 -22 10 -13
0 -48 2 -78 5 -30 3 -59 1 -65 -3 -5 -5 -28 -8 -50 -7 -43 2 -151 -41 -217
-86 -25 -17 -57 -27 -105 -33 -140 -15 -156 -15 -183 2 -74 49 -221 123 -255
128 -11 1 -33 8 -50 15 -35 15 -261 22 -284 9 -9 -4 -37 -15 -63 -25 -26 -9
-62 -27 -80 -40 -17 -13 -38 -24 -45 -24 -7 0 -13 -6 -13 -13 0 -18 -48 -39
-71 -32 -13 4 -19 1 -19 -9 0 -9 -19 -30 -42 -46 -40 -29 -43 -30 -55 -14 -7
10 -13 22 -13 27 0 4 -4 5 -10 2 -13 -8 -13 -5 5 45 8 24 35 64 59 90 23 25
45 51 47 57 6 16 105 63 134 63 19 0 25 5 25 21 0 11 4 17 10 14 5 -3 39 1 75
10 36 10 76 15 88 12 12 -3 33 1 47 8 31 18 27 17 49 4z m-595 -223 c12 -45 6
-85 -14 -96 -11 -6 -20 -7 -20 -3 0 4 -4 3 -8 -3 -4 -5 -46 -20 -95 -31 -48
-12 -99 -31 -114 -42 -14 -12 -30 -21 -35 -21 -5 0 -19 -11 -31 -24 -12 -13
-31 -25 -42 -27 -10 -2 -22 -15 -25 -29 -7 -27 -12 -27 -83 -9 -21 6 -35 14
-32 19 4 6 -5 10 -19 10 -14 0 -26 5 -26 10 0 6 4 10 8 10 4 0 25 27 46 59 22
35 49 64 66 71 30 13 44 35 33 52 -3 7 -1 8 6 4 7 -4 27 -1 45 8 18 8 51 18
74 22 24 4 45 10 48 15 2 4 10 6 17 3 8 -3 25 1 38 8 14 7 55 13 91 14 59 0
67 -2 72 -20z m727 -17 c54 -18 55 -27 2 -23 -26 2 -40 1 -30 -2 9 -3 15 -9
13 -12 -2 -4 13 -7 35 -7 21 0 39 3 39 8 0 4 5 7 11 7 5 0 7 -4 4 -10 -3 -5 0
-7 7 -5 8 3 41 -8 73 -25 33 -16 69 -30 79 -30 27 0 7 -20 -25 -25 -107 -16
-264 -50 -309 -66 -67 -24 -204 -115 -222 -147 -10 -19 -17 -22 -38 -16 -14 4
-38 8 -55 8 -18 1 -37 10 -48 24 -18 22 -18 23 23 84 22 34 54 70 69 79 30 18
46 37 39 45 -7 6 -98 -46 -98 -57 0 -4 -7 -6 -15 -2 -12 4 -21 -8 -37 -45
l-21 -50 -31 18 c-30 18 -55 24 -145 35 -72 8 -233 -42 -294 -92 -27 -21 -88
-32 -86 -15 1 18 119 98 177 119 74 27 224 45 260 32 48 -18 81 -10 125 29 38
35 64 51 77 48 3 0 27 12 55 28 111 66 276 95 366 65z m1014 -33 c70 -14 158
-71 219 -140 l57 -66 -43 16 c-30 11 -86 16 -188 17 -140 2 -147 1 -200 -26
-30 -15 -47 -22 -38 -14 15 12 15 15 -3 44 -21 33 -38 42 -134 69 l-60 17 65
30 c118 54 230 72 325 53z m-722 -73 c-7 -2 -19 -2 -25 0 -7 3 -2 5 12 5 14 0
19 -2 13 -5z m-1788 -75 c3 -9 16 -19 29 -22 13 -3 29 -18 35 -35 9 -20 18
-27 31 -24 10 3 24 -3 31 -14 8 -10 25 -24 39 -32 131 -75 166 -93 190 -96 16
-2 37 -8 47 -14 60 -32 117 -53 136 -49 13 3 29 -1 35 -9 7 -7 25 -13 40 -13
16 0 32 -4 38 -9 13 -14 173 -54 264 -66 125 -17 318 -43 330 -44 8 0 40 -3
70 -5 67 -6 160 -14 220 -21 55 -6 53 -6 164 -6 21 0 48 -4 61 -9 13 -5 26 -6
30 -2 3 4 99 7 213 8 225 1 397 13 423 30 5 3 18 0 29 -6 16 -9 25 -8 35 0 8
7 19 9 25 5 5 -3 10 -3 10 2 0 4 10 8 23 9 79 3 198 13 204 17 5 3 39 8 77 11
37 3 71 8 75 10 3 3 26 7 50 11 88 13 359 98 433 136 21 11 42 18 47 15 4 -3
25 6 45 20 21 14 40 23 43 20 3 -3 24 10 46 29 22 19 47 35 54 35 7 0 13 4 13
9 0 8 25 28 123 100 19 14 19 13 12 -35 -4 -27 -9 -65 -11 -84 -8 -87 -13
-121 -19 -141 -4 -11 -13 -57 -20 -102 -18 -112 -20 -118 -65 -258 -22 -68
-46 -128 -54 -134 -7 -5 -18 -26 -25 -47 -7 -20 -19 -39 -28 -42 -8 -4 -13
-13 -9 -21 3 -8 0 -18 -7 -22 -7 -5 -18 -17 -25 -28 -7 -11 -22 -35 -33 -52
-12 -18 -25 -33 -30 -33 -5 0 -9 -6 -9 -13 0 -15 -54 -79 -119 -141 -24 -22
-60 -57 -81 -78 -20 -20 -53 -44 -71 -53 -19 -10 -50 -31 -70 -46 -20 -16 -41
-29 -46 -29 -5 0 -30 -13 -55 -29 -25 -16 -49 -27 -52 -24 -3 3 -11 1 -18 -5
-20 -16 -217 -89 -305 -112 -83 -23 -96 -25 -158 -35 -22 -3 -57 -10 -79 -16
-21 -6 -44 -8 -52 -5 -8 3 -14 0 -14 -7 0 -8 -4 -7 -10 3 -8 12 -12 12 -18 2
-5 -8 -27 -13 -53 -12 -24 1 -66 -2 -94 -5 -61 -8 -456 -10 -507 -2 -22 3 -38
1 -40 -5 -3 -7 -11 -7 -27 2 -13 6 -50 12 -82 12 -33 0 -61 4 -64 9 -3 4 -12
6 -20 3 -8 -3 -38 1 -67 9 -29 9 -81 21 -115 27 -79 14 -291 82 -325 104 -14
9 -30 16 -34 14 -5 -1 -28 10 -51 25 -24 15 -46 27 -50 27 -5 0 -21 12 -38 27
-16 15 -38 29 -49 30 -12 2 -33 17 -47 33 -14 16 -29 27 -32 23 -4 -3 -39 26
-79 66 -40 39 -78 71 -85 71 -7 0 -13 3 -13 8 0 4 -17 26 -38 48 -20 23 -43
51 -51 62 -8 12 -19 18 -24 15 -6 -3 -7 -1 -4 4 4 6 0 16 -8 23 -16 14 -84
115 -131 195 -36 62 -81 171 -104 250 -18 59 -35 111 -51 150 -29 71 -43 161
-45 300 l-3 150 19 -25 c11 -14 22 -32 25 -42z m2025 5 c8 -4 38 -12 65 -19
28 -6 84 -24 126 -40 l76 -28 -115 -58 c-64 -32 -119 -54 -122 -50 -3 4 -17 8
-32 10 -15 1 -39 9 -54 16 -14 8 -33 12 -42 9 -9 -4 -13 -2 -9 4 5 8 -6 10
-33 7 -27 -2 -40 0 -40 9 0 9 -2 9 -8 0 -4 -7 -21 -11 -37 -9 -17 1 -41 -2
-55 -6 -13 -5 -43 -12 -65 -14 -96 -13 -162 -37 -237 -87 -43 -28 -78 -57 -78
-64 0 -14 -83 -18 -163 -7 -43 6 -46 8 -35 28 6 11 21 28 33 37 11 10 30 33
40 53 11 20 23 36 27 36 4 0 38 15 75 32 38 18 70 33 73 33 3 0 10 3 16 7 6 4
43 14 82 23 40 9 72 21 72 26 0 6 5 7 10 4 6 -3 10 -1 10 5 0 6 10 8 26 4 17
-4 25 -3 21 3 -4 6 3 8 18 5 14 -2 25 0 25 4 0 8 17 11 72 14 10 1 20 4 22 8
5 9 216 13 236 5z m-1145 -148 c11 -4 62 -25 113 -48 84 -37 92 -43 92 -68 0
-15 -4 -31 -10 -34 -14 -9 -172 12 -270 36 -160 39 -170 42 -164 50 3 5 -3 9
-13 10 -56 2 -74 6 -84 16 -12 12 53 38 132 51 44 8 167 0 204 -13z m1810 10
c48 -6 181 -55 260 -95 l36 -18 -34 -11 c-19 -7 -43 -13 -53 -15 -11 -2 -38
-9 -60 -15 -23 -6 -48 -9 -55 -6 -8 3 -27 7 -44 9 -16 3 -56 9 -87 14 -31 5
-77 7 -102 6 -58 -4 -157 -30 -166 -44 -4 -6 -14 -8 -23 -4 -10 3 -17 1 -17
-5 0 -6 -3 -10 -7 -9 -5 1 -24 -1 -43 -5 -19 -4 -44 -9 -55 -11 -52 -10 -249
-18 -240 -9 63 57 259 173 272 160 3 -4 11 -1 17 7 11 14 168 46 224 46 17 0
34 5 37 10 4 6 25 9 48 6 23 -3 65 -8 92 -11z m464 -66 c-27 -23 -86 -26 -86
-4 0 9 6 14 14 11 7 -3 13 -2 13 2 0 4 18 8 41 9 l41 2 -23 -20z m-1221 -55
c29 -8 28 -23 -7 -64 l-29 -35 -172 0 c-198 0 -260 4 -260 15 0 5 14 11 30 15
17 4 28 11 24 16 -3 5 0 9 6 9 6 0 8 5 4 12 -5 7 -2 9 8 6 8 -3 39 2 69 13 41
14 83 18 179 19 69 0 135 -3 148 -6z m776 -1381 c3 -10 4 -36 1 -58 -2 -22 -4
-43 -4 -47 -2 -21 -65 -61 -134 -84 -43 -14 -83 -27 -90 -28 -7 -1 -17 -5 -23
-9 -7 -4 -40 -9 -75 -12 -35 -4 -80 -10 -99 -15 -19 -4 -42 -8 -50 -8 -8 0
-31 -3 -50 -7 -19 -3 -78 -7 -130 -9 -52 -1 -103 -6 -113 -10 -10 -5 -23 -3
-32 4 -8 6 -19 8 -26 4 -21 -13 -83 -14 -106 -3 -17 9 -26 9 -37 0 -8 -7 -20
-10 -27 -6 -6 4 -47 9 -91 11 -45 2 -89 6 -98 9 -23 7 -75 15 -120 19 -19 2
-55 12 -80 23 -25 11 -50 18 -56 16 -17 -6 -142 55 -152 74 -13 25 -25 133
-15 133 5 0 33 -6 63 -14 30 -7 78 -17 105 -21 28 -4 56 -11 62 -17 7 -6 23
-8 35 -5 11 3 30 1 40 -4 20 -11 110 -22 166 -20 18 1 53 -4 78 -9 34 -8 50
-7 60 1 11 9 24 9 52 1 35 -10 81 -9 307 3 55 3 119 6 143 7 23 0 45 4 47 8 3
5 14 6 25 3 11 -3 40 0 63 6 23 6 60 13 82 15 46 5 233 50 242 60 12 12 32 6
37 -11z"/>
<path d="M2630 2433 c0 -6 -10 -9 -22 -7 -21 4 -21 4 -3 -4 l20 -9 -20 -5
c-19 -5 -19 -6 1 -7 20 -1 41 25 29 37 -3 3 -5 1 -5 -5z"/>
<path d="M2514 2406 c-15 -12 -15 -13 0 -13 9 0 16 4 16 8 0 4 9 5 20 2 11 -3
20 -3 20 0 0 12 -41 14 -56 3z"/>
<path d="M5705 3051 c-43 -26 -102 -91 -114 -124 -6 -16 -11 -92 -11 -169 0
-124 3 -147 21 -186 80 -164 294 -122 380 75 86 195 56 345 -79 404 -59 26
-156 26 -197 0z m195 -118 c26 -33 26 -101 0 -184 -22 -70 -78 -162 -111 -180
-31 -16 -67 -3 -85 33 -14 27 -15 41 -4 102 8 51 9 88 1 134 -12 75 -8 88 33
109 71 37 129 32 166 -14z"/>
<path d="M5658 2235 c-39 -22 -47 -74 -18 -115 32 -45 67 -56 99 -32 38 28 55
64 47 95 -15 61 -70 83 -128 52z"/>
<path d="M5398 2203 c-65 -40 -57 -139 14 -176 31 -16 43 -17 71 -8 73 24 100
76 72 136 -29 61 -101 83 -157 48z m54 -73 c-2 -16 -9 -30 -14 -30 -6 0 -7 7
-4 16 3 9 6 22 6 30 0 8 4 14 8 14 5 0 7 -13 4 -30z"/>
<path d="M5845 2145 c-39 -38 -32 -86 17 -111 58 -30 128 16 113 74 -16 65
-84 84 -130 37z"/>
<path d="M5986 2028 c-20 -29 -20 -82 0 -102 8 -9 27 -16 40 -16 75 0 103 83
42 120 -43 26 -63 25 -82 -2z"/>
<path d="M5615 2031 c-53 -9 -75 -22 -118 -70 -66 -73 -66 -127 -3 -261 16
-34 26 -72 26 -102 0 -158 156 -255 285 -177 33 20 95 91 95 109 0 6 8 25 17
43 9 18 16 36 15 40 -1 4 3 17 8 28 25 45 29 164 8 229 -18 59 -67 110 -132
141 -63 30 -113 35 -201 20z m145 -116 c49 -25 70 -62 70 -120 0 -75 -26 -201
-49 -238 -22 -35 -83 -73 -100 -62 -25 15 -44 73 -45 136 -2 58 -6 71 -37 115
-42 57 -51 87 -39 120 22 56 133 83 200 49z"/>
<path d="M5100 1241 c-58 -31 -74 -116 -30 -156 14 -13 28 -15 58 -10 65 11
77 25 77 90 0 48 -4 60 -24 76 -29 24 -38 24 -81 0z"/>
<path d="M5281 1221 c-49 -49 -8 -158 51 -136 20 8 48 58 48 87 0 55 -62 86
-99 49z"/>
<path d="M5421 1144 c-40 -33 -42 -74 -5 -103 33 -26 50 -26 92 -1 42 26 44
70 6 105 -34 32 -55 31 -93 -1z"/>
<path d="M5125 1046 c-27 -13 -60 -34 -71 -47 -87 -97 -148 -301 -115 -382 6
-16 11 -32 11 -36 0 -5 19 -26 43 -48 96 -88 204 -59 360 100 49 49 86 91 83
94 -3 3 1 20 8 37 23 54 18 120 -11 177 -30 57 -76 93 -149 115 -64 19 -100
17 -159 -10z m155 -101 c69 -36 81 -119 29 -198 -39 -60 -145 -155 -181 -162
-36 -8 -82 17 -96 52 -18 46 -1 160 26 177 6 3 18 29 28 57 19 52 36 67 89 80
48 11 74 10 105 -6z"/>
<path d="M5530 1043 c0 -4 -13 -15 -29 -25 -29 -16 -29 -17 -16 -55 8 -21 14
-46 15 -55 0 -10 11 -25 24 -33 22 -15 28 -15 62 0 61 25 71 59 30 100 -14 14
-26 35 -28 47 -2 17 -11 24 -30 26 -16 2 -28 0 -28 -5z"/>
</g>
</svg>
